<?xml version="1.0" encoding="UTF-8"?>
<svg width="40px" height="1040px" viewBox="0 0 40 1040" version="1.1" xmlns="http://www.w3.org/2000/svg" xmlns:xlink="http://www.w3.org/1999/xlink">
    <title>dm-tools-sprite</title>
    <g id="dm-tools-sprite" stroke="none" stroke-width="1" fill="none" fill-rule="evenodd">
        <g id="Group-5" transform="translate(9.000000, 9.000000)" stroke="#2E74FF" stroke-width="2">
            <circle id="Oval-5" cx="11" cy="11" r="10"></circle>
            <circle id="Oval" stroke-linecap="round" stroke-linejoin="round" cx="11" cy="9.2724359" r="4.125"></circle>
            <path d="M15.3014202,16.7832291 C14.0489536,16.0164799 12.5760895,15.5745192 11,15.5745192 C9.40394662,15.5745192 7.91375029,16.0277472 6.65109231,16.8125217" id="Oval-2" stroke-linecap="square" stroke-linejoin="round"></path>
        </g>
        <g id="Group" transform="translate(10.000000, 170.000000)" fill-rule="nonzero" stroke="#A419FF" stroke-width="2">
            <path d="M4.6376429,1.54967946 C3.77559442,2.09654976 3.00294501,2.77169633 2.34654491,3.54826895 M1.32017148,5.00837978 C0.552172171,6.33899422 0.0817935229,7.86299967 0,9.48943164 M0.0891609849,11.433454 C0.42315138,13.7602215 1.55815257,15.828327 3.20576689,17.3493728 M4.57070287,18.4074811 C6.13159734,19.4151581 7.99109587,20 9.98719155,20 C11.0117253,20 12.0002731,19.8459264 12.9309289,19.5596854 M14.6613324,18.8426496 C17.8291222,17.1647099 19.9871916,13.834377 19.9871916,10 C19.9871916,4.4771525 15.5100391,0 9.98719155,0" id="Oval-2"></path>
            <path d="M7.85037943,7.46907457 L11.15714,6.9243993 C11.7020817,6.83463885 12.2166095,7.2036362 12.3063699,7.74857795 C12.3240975,7.85620328 12.3240975,7.96600395 12.3063699,8.07362928 L11.7616947,11.3803898 C11.6719342,11.9253315 11.1574064,12.2943289 10.6124647,12.2045685 C10.406173,12.170589 10.2157194,12.0728068 10.0678836,11.9249709 L7.30579831,9.16288567 C6.91527402,8.77236138 6.91527402,8.1391964 7.30579831,7.74867211 C7.45363415,7.60083627 7.64408773,7.50305405 7.85037943,7.46907457 Z" id="Rectangle-9" transform="translate(9.230769, 10.000000) rotate(45.000000) translate(-9.230769, -10.000000) "></path>
        </g>
        <g id="Group-6" transform="translate(10.000000, 50.000000)" stroke="#EC353F" stroke-width="2">
            <rect id="Rectangle" x="1" y="1" width="18" height="18" rx="5"></rect>
            <path d="M7.81150892,8.41952519 L7.81150892,11.9193846 C7.81150892,12.554512 8.32638146,13.0693846 8.96150892,13.0693846 C9.17884083,13.0693846 9.391724,13.0078 9.57548906,12.8917674 L12.3469168,11.1418377 C12.883949,10.8027458 13.0444113,10.0925069 12.7053195,9.55547473 C12.6139938,9.41083888 12.4915526,9.28839773 12.3469168,9.19707203 L9.57548906,7.44714236 C9.03845685,7.10805049 8.32821795,7.26851284 7.98912608,7.80554505 C7.87309349,7.98931011 7.81150892,8.20219328 7.81150892,8.41952519 Z" id="Path-9"></path>
        </g>
        <g id="Group-6" transform="translate(10.000000, 89.000000)" stroke="#00AE4B" stroke-width="2">
            <path d="M10.7355592,1 C11.2659922,1 11.7747,1.21071368 12.1497728,1.58578644 L12.1497728,1.58578644 L13.5639863,3 L15,3 C16.1045695,3 17.1045695,3.44771525 17.8284271,4.17157288 C18.5522847,4.8954305 19,5.8954305 19,7 L19,7 L19,16 C19,17.1045695 18.5522847,18.1045695 17.8284271,18.8284271 C17.1045695,19.5522847 16.1045695,20 15,20 L15,20 L5,20 C3.8954305,20 2.8954305,19.5522847 2.17157288,18.8284271 C1.44771525,18.1045695 1,17.1045695 1,16 L1,16 L1,7 C1,5.8954305 1.44771525,4.8954305 2.17157288,4.17157288 C2.8954305,3.44771525 3.8954305,3 5,3 L5,3 L6.39241347,3 L7.80662703,1.58578644 C8.18169979,1.21071368 8.69040761,1 9.22084059,1 L9.22084059,1 L10.7355592,1 Z" id="Rectangle"></path>
        </g>
        <g id="Group-6" transform="translate(10.000000, 130.000000)" stroke="#FF744B" stroke-width="2">
            <rect id="Rectangle" x="1" y="1" width="18" height="18" rx="5"></rect>
            <line x1="0.975193256" y1="6.49638784" x2="18.9812066" y2="6.49638784" id="Path-7"></line>
            <line x1="5.08893992" y1="1.10213362" x2="8.28489028" y2="6.49638784" id="Path-8"></line>
            <line x1="11.4889399" y1="1.10213362" x2="14.6848903" y2="6.49638784" id="Path-8"></line>
            <path d="M7.81150892,10.9195252 L7.81150892,14.4193846 C7.81150892,15.054512 8.32638146,15.5693846 8.96150892,15.5693846 C9.17884083,15.5693846 9.391724,15.5078 9.57548906,15.3917674 L12.3469168,13.6418377 C12.883949,13.3027458 13.0444113,12.5925069 12.7053195,12.0554747 C12.6139938,11.9108389 12.4915526,11.7883977 12.3469168,11.697072 L9.57548906,9.94714236 C9.03845685,9.60805049 8.32821795,9.76851284 7.98912608,10.3055451 C7.87309349,10.4893101 7.81150892,10.7021933 7.81150892,10.9195252 Z" id="Path-9"></path>
        </g>
        <g id="Group-6" transform="translate(10.000000, 210.000000)" stroke="#D5237F" stroke-width="2">
            <rect id="Rectangle" x="1" y="1" width="18" height="18" rx="5"></rect>
            <path d="M7.81150892,8.41952519 L7.81150892,11.9193846 C7.81150892,12.554512 8.32638146,13.0693846 8.96150892,13.0693846 C9.17884083,13.0693846 9.391724,13.0078 9.57548906,12.8917674 L12.3469168,11.1418377 C12.883949,10.8027458 13.0444113,10.0925069 12.7053195,9.55547473 C12.6139938,9.41083888 12.4915526,9.28839773 12.3469168,9.19707203 L9.57548906,7.44714236 C9.03845685,7.10805049 8.32821795,7.26851284 7.98912608,7.80554505 C7.87309349,7.98931011 7.81150892,8.20219328 7.81150892,8.41952519 Z" id="Path-9"></path>
        </g>
        <circle id="Oval" stroke="#00AE4B" stroke-width="2" cx="20" cy="100" r="3"></circle>
        <circle id="Oval" fill="#00AE4B" cx="25" cy="97" r="1"></circle>
    </g>
</svg>