<?xml version="1.0" encoding="UTF-8"?>
<svg width="40px" height="1040px" viewBox="0 0 40 1040" version="1.1" xmlns="http://www.w3.org/2000/svg" xmlns:xlink="http://www.w3.org/1999/xlink">
    <title>dm-ui-sprite</title>
    <g id="dm-ui-sprite" stroke="none" stroke-width="1" fill="none" fill-rule="evenodd">
        <g id="Group" transform="translate(13.000000, 853.000000)">
            <rect id="Rectangle" fill="#3BD5EC" x="0" y="0" width="14" height="14" rx="7"></rect>
            <polygon id="Path-4" fill="#FFFFFF" fill-rule="nonzero" points="9.43404715 5.16649028 10.2155862 5.94802935 6.46115403 9.70246154 4.15973615 7.40104366 4.94127522 6.61950459 6.46115403 8.1393834"></polygon>
        </g>
        <g id="icon" transform="translate(13.000000, 453.000000)" stroke="#FFFFFF" stroke-width="2">
            <g transform="translate(0.000000, 0.453923)">
                <line x1="14" y1="12.2426407" x2="0" y2="12.2426407" id="Rectangle-12"></line>
                <polyline id="Rectangle-15" transform="translate(7.000000, 4.242641) rotate(-45.000000) translate(-7.000000, -4.242641) " points="10 7.24264069 4 7.24264069 4 1.24264069"></polyline>
            </g>
            <line x1="7.0260804" y1="0" x2="7.0260804" y2="8.26064496" id="Path-7" fill-rule="nonzero"></line>
        </g>
        <g id="Group-4" transform="translate(15.000000, 215.000000)" stroke="#FFFFFF" stroke-width="2">
            <line x1="2.7476618e-14" y1="1.09906472e-14" x2="10" y2="10" id="Path-15"></line>
            <line x1="2.7476618e-14" y1="1.09906472e-14" x2="10" y2="10" id="Path-15" transform="translate(5.000000, 5.000000) scale(-1, 1) translate(-5.000000, -5.000000) "></line>
        </g>
        <g id="Group-4" transform="translate(16.000000, 256.000000)" stroke="#80868B" stroke-width="2">
            <line x1="2.19812944e-14" y1="8.79251777e-15" x2="8" y2="8" id="Path-15"></line>
            <line x1="2.19812944e-14" y1="8.79251777e-15" x2="8" y2="8" id="Path-15" transform="translate(4.000000, 4.000000) scale(-1, 1) translate(-4.000000, -4.000000) "></line>
        </g>
        <g id="Group-20" transform="translate(12.000000, 409.225754)" stroke="#FFFFFF" stroke-width="2">
            <path d="M0.599002299,8.59447366 C0.213028539,9.52528857 0,10.5459423 0,11.6163515 C0,15.9764942 3.53459408,19.5110883 7.89473684,19.5110883 C12.2548796,19.5110883 15.7894737,15.9764942 15.7894737,11.6163515 C15.7894737,7.25620872 12.2548796,3.72161464 7.89473684,3.72161464 L2.63157895,3.72161464" id="Path"></path>
            <polyline id="Path" transform="translate(5.263158, 3.721615) rotate(45.000000) translate(-5.263158, -3.721615) " points="7.89473684 6.35319359 2.63157895 6.35319359 2.63157895 1.09003569 2.63157895 1.09003569"></polyline>
            <path d="M9.48895071,8.59986233 L7.11395071,12.713483 C7.04491512,12.8330562 7.08588391,12.9859538 7.20545706,13.0549893 L11.3190777,15.4299893 L11.3190777,15.4299893" id="Path-5" transform="translate(9.154014, 12.014926) rotate(-300.000000) translate(-9.154014, -12.014926) "></path>
        </g>
        <polyline id="Path-17" stroke="#FFFFFF" stroke-width="2" transform="translate(19.978704, 299.957408) rotate(90.000000) translate(-19.978704, -299.957408) " points="17 294 22.9574081 299.957408 17 305.914816"></polyline>
        <polyline id="Path-17" stroke="#FFFFFF" stroke-width="2" points="17 334 22.9574081 339.957408 17 345.914816"></polyline>
        <g id="icon" transform="translate(11.000000, 371.000000)" stroke="#FFFFFF" stroke-linecap="square" stroke-width="2">
            <path d="M9,0.1125 L9,3.49499169 M15.2844115,2.71558848 L12.8926287,5.10737129 M17.8875,9 L14.5050083,9 M15.2844115,15.2844115 L12.8926287,12.8926287 M9,17.8875 L9,14.5050083 M2.71558848,15.2844115 L5.10737129,12.8926287 M0.1125,9 L3.49499169,9 M2.71558848,2.71558848 L5.10737129,5.10737129" id="loader"></path>
        </g>
        <g id="Group-2" transform="translate(9.000000, 131.000000)" stroke="#FFFFFF" stroke-width="2">
            <rect id="Rectangle-5" x="1" y="1" width="20" height="16" rx="4"></rect>
            <polyline id="Path-2" points="1 6 11 10 21 6"></polyline>
        </g>
        <g id="Group-5" transform="translate(9.000000, 88.000000)" stroke="#FFFFFF" stroke-width="2">
            <rect id="Rectangle-5" x="1" y="1" width="20" height="16" rx="4"></rect>
            <rect id="Rectangle-18" fill-rule="nonzero" x="5" y="5" width="3" height="3" rx="1"></rect>
            <line x1="12.067196" y1="4.85037754" x2="17.067196" y2="4.85037754" id="Path-10" fill-rule="nonzero"></line>
            <line x1="12.067196" y1="8.85037754" x2="17.067196" y2="8.85037754" id="Path-10" fill-rule="nonzero"></line>
            <line x1="5.06719604" y1="12.8503775" x2="17.067196" y2="12.8503775" id="Path-10" fill-rule="nonzero"></line>
        </g>
        <path d="M20,49.118034 L27.8944272,53.0652476 C28.2332112,53.2346396 28.5096044,53.4924672 28.7013016,53.8026397 C28.8929988,54.1128123 29,54.4753299 29,54.854102 L29,54.854102 L29,64 C29,64.5522847 28.7761424,65.0522847 28.4142136,65.4142136 C28.0522847,65.7761424 27.5522847,66 27,66 L27,66 L22.75,66 L22.75,59.6528729 L17.8308088,58.8330077 L17.3188808,66 L13,66 C12.4477153,66 11.9477153,65.7761424 11.5857864,65.4142136 C11.2238576,65.0522847 11,64.5522847 11,64 L11,64 L11,54.854102 C11,54.4753299 11.1070012,54.1128123 11.2986984,53.8026397 C11.4903956,53.4924672 11.7667888,53.2346396 12.1055728,53.0652476 L12.1055728,53.0652476 L20,49.118034 Z" id="Rectangle-5" stroke="#FFFFFF" stroke-width="2"></path>
        <g id="Group-3" transform="translate(11.000000, 14.375000)" stroke="#FFFFFF" stroke-width="2">
            <line x1="0" y1="5.5" x2="18" y2="5.5" id="Path-4"></line>
            <line x1="0" y1="0.5" x2="18" y2="0.5" id="Path-4"></line>
            <line x1="0" y1="10.5" x2="18" y2="10.5" id="Path-4"></line>
        </g>
        <g id="icon" transform="translate(13.000000, 172.000000)" fill-rule="nonzero" stroke="#FFFFFF" stroke-width="2">
            <circle id="Oval-3" cx="6.5" cy="6.5" r="6.5"></circle>
            <line x1="11.3494866" y1="11.6873404" x2="14.8341866" y2="15.1720404" id="Path-6"></line>
        </g>
        <g id="Group-5" transform="translate(8.000000, 488.000000)" stroke="#FFFFFF" stroke-width="2">
            <circle id="Oval-5" cx="12" cy="12" r="11"></circle>
            <circle id="Oval" stroke-linecap="round" stroke-linejoin="round" cx="12" cy="10.1153846" r="4.5"></circle>
            <path d="M16.6924584,18.3089772 C15.3261312,17.4725235 13.7193704,16.9903846 12,16.9903846 C10.2588509,16.9903846 8.63318214,17.4848151 7.25573706,18.3409328" id="Oval-2" stroke-linecap="square" stroke-linejoin="round"></path>
        </g>
        <g id="Group-4" transform="translate(10.000000, 570.000000)" stroke="#FFFFFF" stroke-width="2">
            <polyline id="Path-3" transform="translate(16.987911, 3.004358) scale(-1, 1) translate(-16.987911, -3.004358) " points="14.08465 6.00871526 14.08465 9.76996262e-15 19.8911727 9.76996262e-15"></polyline>
            <polyline id="Path-3" transform="translate(16.972227, 16.720621) scale(-1, -1) translate(-16.972227, -16.720621) " points="14.0689655 19.7249782 14.0689655 13.7162629 19.8754882 13.7162629"></polyline>
            <polyline id="Path-3" transform="translate(2.903261, 16.720621) scale(1, -1) translate(-2.903261, -16.720621) " points="-1.80300219e-13 19.7249782 -1.80300219e-13 13.7162629 5.80652272 13.7162629"></polyline>
            <polyline id="Path-3" points="0.0156844952 6.00871526 0.0156844952 9.76996262e-15 5.82220722 9.76996262e-15"></polyline>
            <rect id="Rectangle" x="6.42857143" y="6.28769152" width="7.14285714" height="7.14285714" rx="3.57142857"></rect>
        </g>
        <g id="Group" transform="translate(9.000000, 649.000000)" fill-rule="nonzero" stroke="#FFFFFF" stroke-width="2">
            <path d="M5.10140719,1.70464741 C4.15315386,2.30620474 3.30323951,3.04886597 2.5811994,3.90309584 M1.45218863,5.50921775 C0.607389388,6.97289365 0.0899728751,8.64929963 0,10.4383748 M0.0980770834,12.5767995 C0.465466518,15.1362437 1.71396782,17.4111597 3.52634358,19.0843101 M5.02777315,20.2482293 C6.74475707,21.3566739 8.79020546,22 10.9859107,22 C12.1128978,22 13.2003004,21.830519 14.2240218,21.5156539 M16.1274656,20.7269146 C19.6120344,18.8811809 21.9859107,15.2178147 21.9859107,11 C21.9859107,4.92486775 17.061043,0 10.9859107,0" id="Oval-2"></path>
            <path d="M8.4432338,8.24763767 L12.4104394,7.59417674 C12.9553812,7.5044163 13.469909,7.87341365 13.5596694,8.4183554 C13.577397,8.52598072 13.577397,8.6357814 13.5596694,8.74340672 L12.9062085,12.7106124 C12.816448,13.2555541 12.3019202,13.6245515 11.7569785,13.534791 C11.5506868,13.5008115 11.3602332,13.4030293 11.2123974,13.2551935 L7.89865268,9.94144877 C7.50812839,9.55092448 7.50812839,8.9177595 7.89865268,8.52723521 C8.04648852,8.37939937 8.2369421,8.28161715 8.4432338,8.24763767 Z" id="Rectangle-9" transform="translate(10.153846, 11.000000) rotate(45.000000) translate(-10.153846, -11.000000) "></path>
        </g>
        <g id="Group-6" transform="translate(8.000000, 728.000000)" stroke="#FFFFFF" stroke-width="2">
            <rect id="Rectangle" x="1" y="1" width="22" height="22" rx="8"></rect>
            <line x1="1.17023191" y1="7.7956654" x2="22.7774479" y2="7.7956654" id="Path-7"></line>
            <line x1="6.1067279" y1="1.32256035" x2="9.94186834" y2="7.7956654" id="Path-8"></line>
            <line x1="13.7867279" y1="1.32256035" x2="17.6218683" y2="7.7956654" id="Path-8"></line>
            <path d="M9.3738107,12.6861919 L9.3738107,17.7204998 C9.3738107,18.3556273 9.88868324,18.8704998 10.5238107,18.8704998 C10.7411426,18.8704998 10.9540258,18.8089153 11.1377908,18.6928827 L15.1242998,16.1757287 C15.661332,15.8366368 15.8217944,15.1263979 15.4827025,14.5893657 C15.3913768,14.4447299 15.2689357,14.3222887 15.1242998,14.230963 L11.1377908,11.713809 C10.6007586,11.3747172 9.89051973,11.5351795 9.55142786,12.0722117 C9.43539527,12.2559768 9.3738107,12.46886 9.3738107,12.6861919 Z" id="Path-9"></path>
        </g>
        <g id="Group-5" transform="translate(8.000000, 528.000000)" stroke="#80868B" stroke-width="2">
            <circle id="Oval-5" cx="12" cy="12" r="11"></circle>
            <circle id="Oval" stroke-linecap="round" stroke-linejoin="round" cx="12" cy="10.1153846" r="4.5"></circle>
            <path d="M16.6924584,18.3089772 C15.3261312,17.4725235 13.7193704,16.9903846 12,16.9903846 C10.2588509,16.9903846 8.63318214,17.4848151 7.25573706,18.3409328" id="Oval-2" stroke-linecap="square" stroke-linejoin="round"></path>
        </g>
        <g id="Group-4" transform="translate(10.000000, 610.000000)" stroke="#80868B" stroke-width="2">
            <polyline id="Path-3" transform="translate(16.987911, 3.004358) scale(-1, 1) translate(-16.987911, -3.004358) " points="14.08465 6.00871526 14.08465 9.76996262e-15 19.8911727 9.76996262e-15"></polyline>
            <polyline id="Path-3" transform="translate(16.972227, 16.720621) scale(-1, -1) translate(-16.972227, -16.720621) " points="14.0689655 19.7249782 14.0689655 13.7162629 19.8754882 13.7162629"></polyline>
            <polyline id="Path-3" transform="translate(2.903261, 16.720621) scale(1, -1) translate(-2.903261, -16.720621) " points="-1.80300219e-13 19.7249782 -1.80300219e-13 13.7162629 5.80652272 13.7162629"></polyline>
            <polyline id="Path-3" points="0.0156844952 6.00871526 0.0156844952 9.76996262e-15 5.82220722 9.76996262e-15"></polyline>
            <rect id="Rectangle" x="6.42857143" y="6.28769152" width="7.14285714" height="7.14285714" rx="3.57142857"></rect>
        </g>
        <g id="Group" transform="translate(9.000000, 689.000000)" fill-rule="nonzero" stroke="#80868B" stroke-width="2">
            <path d="M5.10140719,1.70464741 C4.15315386,2.30620474 3.30323951,3.04886597 2.5811994,3.90309584 M1.45218863,5.50921775 C0.607389388,6.97289365 0.0899728751,8.64929963 0,10.4383748 M0.0980770834,12.5767995 C0.465466518,15.1362437 1.71396782,17.4111597 3.52634358,19.0843101 M5.02777315,20.2482293 C6.74475707,21.3566739 8.79020546,22 10.9859107,22 C12.1128978,22 13.2003004,21.830519 14.2240218,21.5156539 M16.1274656,20.7269146 C19.6120344,18.8811809 21.9859107,15.2178147 21.9859107,11 C21.9859107,4.92486775 17.061043,0 10.9859107,0" id="Oval-2"></path>
            <path d="M8.4432338,8.24763767 L12.4104394,7.59417674 C12.9553812,7.5044163 13.469909,7.87341365 13.5596694,8.4183554 C13.577397,8.52598072 13.577397,8.6357814 13.5596694,8.74340672 L12.9062085,12.7106124 C12.816448,13.2555541 12.3019202,13.6245515 11.7569785,13.534791 C11.5506868,13.5008115 11.3602332,13.4030293 11.2123974,13.2551935 L7.89865268,9.94144877 C7.50812839,9.55092448 7.50812839,8.9177595 7.89865268,8.52723521 C8.04648852,8.37939937 8.2369421,8.28161715 8.4432338,8.24763767 Z" id="Rectangle-9" transform="translate(10.153846, 11.000000) rotate(45.000000) translate(-10.153846, -11.000000) "></path>
        </g>
        <g id="Group-6" transform="translate(8.000000, 768.000000)" stroke="#80868B" stroke-width="2">
            <rect id="Rectangle" x="1" y="1" width="22" height="22" rx="8"></rect>
            <line x1="1.17023191" y1="7.7956654" x2="22.7774479" y2="7.7956654" id="Path-7"></line>
            <line x1="6.1067279" y1="1.32256035" x2="9.94186834" y2="7.7956654" id="Path-8"></line>
            <line x1="13.7867279" y1="1.32256035" x2="17.6218683" y2="7.7956654" id="Path-8"></line>
            <path d="M9.3738107,12.6861919 L9.3738107,17.7204998 C9.3738107,18.3556273 9.88868324,18.8704998 10.5238107,18.8704998 C10.7411426,18.8704998 10.9540258,18.8089153 11.1377908,18.6928827 L15.1242998,16.1757287 C15.661332,15.8366368 15.8217944,15.1263979 15.4827025,14.5893657 C15.3913768,14.4447299 15.2689357,14.3222887 15.1242998,14.230963 L11.1377908,11.713809 C10.6007586,11.3747172 9.89051973,11.5351795 9.55142786,12.0722117 C9.43539527,12.2559768 9.3738107,12.46886 9.3738107,12.6861919 Z" id="Path-9"></path>
        </g>
        <g id="verified" transform="translate(13.000000, 813.000000)" fill-rule="nonzero">
            <polygon id="star" fill="#3897F0" points="7 12.4652344 5.18826668 13.7614808 4.26738281 11.7330318 2.05025253 11.9497475 2.26696819 9.73261719 0.238519216 8.81173332 1.53476562 7 0.238519216 5.18826668 2.26696819 4.26738281 2.05025253 2.05025253 4.26738281 2.26696819 5.18826668 0.238519216 7 1.53476562 8.81173332 0.238519216 9.73261719 2.26696819 11.9497475 2.05025253 11.7330318 4.26738281 13.7614808 5.18826668 12.4652344 7 13.7614808 8.81173332 11.7330318 9.73261719 11.9497475 11.9497475 9.73261719 11.7330318 8.81173332 13.7614808"></polygon>
            <polygon id="checkmark" fill="#FFFFFF" points="9.43404715 5.16649028 10.2155862 5.94802935 6.46115403 9.70246154 4.15973615 7.40104366 4.94127522 6.61950459 6.46115403 8.1393834"></polygon>
        </g>
        <g id="Group-2" transform="translate(10.000000, 890.000000)">
            <rect id="Rectangle" stroke="#EC353F" stroke-width="2" x="1" y="1" width="18" height="18" rx="5"></rect>
            <g id="Group-7" transform="translate(8.500000, 12.000000)" fill="#EC353F">
                <rect id="Rectangle" x="0" y="-1.02318154e-13" width="3" height="3" rx="1.5"></rect>
            </g>
            <line x1="10" y1="10" x2="10" y2="5" id="Path-18" stroke="#EC353F" stroke-width="2"></line>
        </g>
    </g>
</svg>