<?xml version="1.0" encoding="UTF-8"?>
<svg width="100px" height="600px" viewBox="0 0 100 600" version="1.1" xmlns="http://www.w3.org/2000/svg" xmlns:xlink="http://www.w3.org/1999/xlink">
    <title>tools-bg-icons</title>
    <g id="tools-bg-icons" stroke="none" stroke-width="1" fill="none" fill-rule="evenodd" fill-opacity="0.03388">
        <g id="tab-video" transform="translate(14.000000, 114.000000)" fill="#000000" fill-rule="nonzero">
            <path d="M54,0 C63.9411255,0 72,8.0588745 72,18 L72,54 C72,63.9411255 63.9411255,72 54,72 L18,72 C8.0588745,72 0,63.9411255 0,54 L0,18 C0,8.0588745 8.0588745,0 18,0 L54,0 Z M54,6.3 L18,6.3 C11.7610868,6.3 6.66271466,11.1832372 6.31852124,17.3360739 L6.3,18 L6.3,54 C6.3,60.2389132 11.1832372,65.3372853 17.3360739,65.6814788 L18,65.7 L54,65.7 C60.2389132,65.7 65.3372853,60.8167628 65.6814788,54.6639261 L65.7,54 L65.7,18 C65.7,11.7610868 60.8167628,6.66271466 54.6639261,6.31852124 L54,6.3 Z M26.4200812,25.9481826 C28.6732185,22.9241787 32.9113254,22.0990409 36.1535323,24.1462291 L36.1535323,24.1462291 L46.1306721,30.4459759 C47.0475376,31.0249014 47.823708,31.8010718 48.4026336,32.7179373 C50.5521811,36.1222546 49.5349894,40.6245516 46.1306721,42.7740992 L46.1306721,42.7740992 L36.1535323,49.073846 C34.9886216,49.8093917 33.6391274,50.1997844 32.2614321,50.1997844 C28.2352763,50.1997844 24.9714321,46.9359402 24.9714321,42.9097844 L24.9714321,42.9097844 L24.9714321,30.3102907 C24.9714321,28.9325954 25.3618247,27.5831012 26.0973705,26.4181905 L26.0973705,26.4181905 Z M32.7899889,29.4731959 C32.3276742,29.181282 31.7162512,29.3194192 31.4243373,29.7817339 C31.3244484,29.9399316 31.2714321,30.1231963 31.2714321,30.3102907 L31.2714321,30.3102907 L31.2714321,42.9097844 C31.2714321,43.4565463 31.7146702,43.8997844 32.2614321,43.8997844 C32.4485265,43.8997844 32.6317912,43.8467681 32.7899889,43.7468792 L32.7899889,43.7468792 L42.7671287,37.4471323 C43.2294434,37.1552185 43.3675806,36.5437954 43.0756667,36.0814807 C42.9970472,35.9569681 42.8916413,35.8515623 42.7671287,35.7729427 L42.7671287,35.7729427 Z" id="icon"></path>
        </g>
        <g id="tab-photo" transform="translate(13.000000, 212.000000)" fill="#000000" fill-rule="nonzero">
            <path d="M39.0307745,-2.13162821e-14 C41.9781326,-2.13162821e-14 44.7974517,1.2109293 46.8348598,3.35194245 L51.4851126,8.23866713 L54,8.23866713 C63.9411255,8.23866713 72,16.3401138 72,26.3337547 L72,58.9049124 C72,68.8985533 63.9411255,77 54,77 L18,77 C8.0588745,77 0,68.8985533 0,58.9049124 L0,26.3337547 C0,16.3401138 8.0588745,8.23866713 18,8.23866713 L20.3439323,8.23866713 L24.9274604,3.38335843 C26.9666617,1.22324258 29.7989697,-2.13162821e-14 32.7613221,-2.13162821e-14 L39.0307745,-2.13162821e-14 Z M39.0307745,6.33328066 L32.7613221,6.33328066 C31.7033391,6.33328066 30.6851656,6.70774267 29.880783,7.38152607 L29.4972131,7.74301334 L23.0505348,14.5719478 L18,14.5719478 C11.7610868,14.5719478 6.66271466,19.4809813 6.31852124,25.6663214 L6.3,26.3337547 L6.3,58.9049124 C6.3,65.1767836 11.1832372,70.3020886 17.3360739,70.6481003 L18,70.6667193 L54,70.6667193 C60.2389132,70.6667193 65.3372853,65.7576858 65.6814788,59.5723457 L65.7,58.9049124 L65.7,26.3337547 C65.7,20.0618835 60.8167628,14.9365785 54.6639261,14.5905669 L54,14.5719478 L48.793411,14.5719478 L42.2824767,7.72992335 C41.554831,6.96527579 40.5878247,6.48534779 39.5530278,6.36383055 L39.0307745,6.33328066 Z M36,26.7861319 C43.7043723,26.7861319 49.95,33.0647531 49.95,40.8098248 C49.95,48.5548965 43.7043723,54.8335177 36,54.8335177 C28.2956277,54.8335177 22.05,48.5548965 22.05,40.8098248 C22.05,33.0647531 28.2956277,26.7861319 36,26.7861319 Z M36,33.1194126 C31.7750217,33.1194126 28.35,36.5625274 28.35,40.8098248 C28.35,45.0571222 31.7750217,48.500237 36,48.500237 C40.2249783,48.500237 43.65,45.0571222 43.65,40.8098248 C43.65,36.5625274 40.2249783,33.1194126 36,33.1194126 Z M56.6,21.7141051 C57.1522847,21.7141051 57.6,22.1618204 57.6,22.7141051 L57.6,27.9521402 C57.6,28.5044249 57.1522847,28.9521402 56.6,28.9521402 L51.4,28.9521402 C50.8477153,28.9521402 50.4,28.5044249 50.4,27.9521402 L50.4,22.7141051 C50.4,22.1618204 50.8477153,21.7141051 51.4,21.7141051 L56.6,21.7141051 Z" id="icon"></path>
        </g>
        <g id="tab-profile" transform="translate(11.000000, 11.000000)" fill="#000000" fill-rule="nonzero">
            <path d="M39.5,0 C61.3152476,0 79,17.6847524 79,39.5 C79,61.3152476 61.3152476,79 39.5,79 C17.6847524,79 0,61.3152476 0,39.5 C0,17.6847524 17.6847524,0 39.5,0 Z M39.5,6.28409091 C21.15536,6.28409091 6.28409091,21.15536 6.28409091,39.5 C6.28409091,57.84464 21.15536,72.7159091 39.5,72.7159091 C57.84464,72.7159091 72.7159091,57.84464 72.7159091,39.5 C72.7159091,21.15536 57.84464,6.28409091 39.5,6.28409091 Z M39.5,52.7846372 C45.2039287,52.7846372 50.6995624,54.2469472 55.5558464,56.9818325 L56.5865356,57.5872884 L59.266297,59.2278152 L55.9852434,64.5873381 L53.305482,62.9468113 C49.1832445,60.4232132 44.4450599,59.0687281 39.5,59.0687281 C34.8782985,59.0687281 30.4375849,60.2519596 26.5124306,62.4659589 L25.5420765,63.0408448 L22.8734688,64.6994534 L19.5562515,59.362238 L22.2248592,57.7036294 C27.3701997,54.5056673 33.3121894,52.7846372 39.5,52.7846372 Z M39.5,15.3419289 C49.4160216,15.3419289 57.4545455,23.3804527 57.4545455,33.2964744 C57.4545455,43.212496 49.4160216,51.2510198 39.5,51.2510198 C29.5839784,51.2510198 21.5454545,43.212496 21.5454545,33.2964744 C21.5454545,23.3804527 29.5839784,15.3419289 39.5,15.3419289 Z M39.5,21.6260198 C33.0545859,21.6260198 27.8295455,26.8510603 27.8295455,33.2964744 C27.8295455,39.7418884 33.0545859,44.9669289 39.5,44.9669289 C45.9454141,44.9669289 51.1704545,39.7418884 51.1704545,33.2964744 C51.1704545,26.8510603 45.9454141,21.6260198 39.5,21.6260198 Z" id="icon"></path>
        </g>
        <g id="tab-reel" transform="translate(13.000000, 314.000000)" fill="#000000" fill-rule="nonzero">
            <path d="M54,0 C63.9411255,0 72,8.0588745 72,18 L72,54 C72,63.9411255 63.9411255,72 54,72 L18,72 C8.0588745,72 0,63.9411255 0,54 L0,18 C0,8.0588745 8.0588745,0 18,0 L54,0 Z M65.7,26.536 L6.3,26.536 L6.3,54 C6.3,60.2389132 11.1832372,65.3372853 17.3360739,65.6814788 L18,65.7 L54,65.7 C60.2389132,65.7 65.3372853,60.8167628 65.6814788,54.6639261 L65.7,54 L65.7,26.536 Z M26.4200812,34.9481826 C28.6732185,31.9241787 32.9113254,31.0990409 36.1535323,33.1462291 L36.1535323,33.1462291 L46.1306721,39.4459759 C47.0475376,40.0249014 47.823708,40.8010718 48.4026336,41.7179373 C50.5521811,45.1222546 49.5349894,49.6245516 46.1306721,51.7740992 L46.1306721,51.7740992 L36.1535323,58.073846 C34.9886216,58.8093917 33.6391274,59.1997844 32.2614321,59.1997844 C28.2352763,59.1997844 24.9714321,55.9359402 24.9714321,51.9097844 L24.9714321,51.9097844 L24.9714321,39.3102907 C24.9714321,37.9325954 25.3618247,36.5831012 26.0973705,35.4181905 L26.0973705,35.4181905 Z M32.7899889,38.4731959 C32.3276742,38.181282 31.7162512,38.3194192 31.4243373,38.7817339 C31.3244484,38.9399316 31.2714321,39.1231963 31.2714321,39.3102907 L31.2714321,39.3102907 L31.2714321,51.9097844 C31.2714321,52.4565463 31.7146702,52.8997844 32.2614321,52.8997844 C32.4485265,52.8997844 32.6317912,52.8467681 32.7899889,52.7468792 L32.7899889,52.7468792 L42.7671287,46.4471323 C43.2294434,46.1552185 43.3675806,45.5437954 43.0756667,45.0814807 C42.9970472,44.9569681 42.8916413,44.8515623 42.7671287,44.7729427 L42.7671287,44.7729427 Z M6.31852124,17.3360739 L6.3,18 L6.3,20.236 L24.297,20.236 L16.1289629,6.44879977 C10.769779,7.31015249 6.62758073,11.8112949 6.31852124,17.3360739 Z M39.081,6.3 L23.363,6.3 L31.62,20.236 L47.337,20.236 L39.081,6.3 Z M54,6.3 L46.403,6.3 L54.66,20.236 L65.7,20.236 L65.7,18 C65.7,11.7610868 60.8167628,6.66271466 54.6639261,6.31852124 L54,6.3 Z" id="icon"></path>
        </g>
        <g id="taby-story" transform="translate(10.000000, 411.000000)" fill="#000000" fill-rule="nonzero">
            <path d="M21.2409736,66.5146728 C26.4854644,69.8982276 32.5909313,71.7241379 38.9750369,71.7241379 C41.8101177,71.7241379 44.5942008,71.3647572 47.2806807,70.6630432 L48.6155714,70.2837373 L50.4617194,76.2822822 C46.7705041,77.4168598 42.9101626,78 38.9750369,78 C31.8485883,78 24.9991053,76.084786 19.0191559,72.5217581 L17.8349354,71.7872609 L21.2409736,66.5146728 Z M38.9750369,2.84217094e-14 C60.5279289,2.84217094e-14 78,17.4608948 78,39 C78,53.2176658 70.3183444,66.078418 58.2093849,72.9413049 L57.2179398,73.48452 L54.2784648,67.9386222 C64.9226168,62.3041507 71.7201209,51.2547443 71.7201209,39 C71.7201209,21.2440286 57.5695377,6.79098883 39.9236361,6.28932968 L38.9750369,6.27586207 L38.9750369,2.84217094e-14 Z M6.56401346,43.6948057 C7.57722835,50.7489231 10.8690917,57.2129634 15.8696867,62.1883542 L16.7697663,63.0507284 L12.5099906,67.6620148 C6.26491034,61.9003648 2.04443418,54.2636031 0.551278839,45.8536707 L0.347848283,44.5865198 L6.56401346,43.6948057 Z M36.437424,25.2312946 C37.8436992,25.2317445 39.2147488,25.6729471 40.3577901,26.492865 L40.3577901,26.492865 L50.1297485,33.5024143 C53.149215,35.6683158 53.8427321,39.8707642 51.6787622,42.8888454 C51.2513808,43.4849127 50.7293134,44.0069802 50.133246,44.4343616 L50.133246,44.4343616 L40.3657708,51.4376595 C37.3476896,53.6016294 33.1452413,52.9081123 30.9793398,49.8886458 C30.1594219,48.7456046 29.7182192,47.3745549 29.7177693,45.9682797 L29.7177693,45.9682797 L29.7132861,31.9554325 C29.7120976,28.2406052 32.7225967,25.2301061 36.437424,25.2312946 Z M36.4394325,31.5091652 C36.1917774,31.509086 35.9910775,31.7097859 35.9911567,31.957441 L35.9911567,31.957441 L35.9956399,45.9702883 C35.9956699,46.06404 36.0250834,46.1554433 36.0797446,46.231646 C36.2241381,46.4329438 36.5043013,46.4791782 36.7055067,46.3349136 L36.7055067,46.3349136 L46.4729819,39.3316157 L46.5760163,39.2285813 C46.720281,39.0273758 46.6740465,38.7472126 46.4727487,38.6028192 L46.4727487,38.6028192 L36.7007903,31.5932699 C36.6245875,31.5386087 36.5331842,31.5091952 36.4394325,31.5091652 Z M5.15394285,19.5304059 L10.592887,22.6676283 C8.23887921,26.7435085 6.79038485,31.2804703 6.36308382,36.0270686 L6.27195293,37.3266041 L-4.26325641e-14,37.0113884 C0.312860049,30.794269 2.09153405,24.832857 5.15394285,19.5304059 Z M18.0961488,6.04567812 L21.4601891,11.3451263 C19.0449658,12.8763267 16.8391167,14.7179682 14.9010552,16.8174418 L13.9546105,17.888421 L9.15850636,13.8370942 C11.7243333,10.8034622 14.7398501,8.17350044 18.0961488,6.04567812 Z" id="icon"></path>
        </g>
        <g id="tab-video" transform="translate(14.000000, 514.000000)" fill="#000000" fill-rule="nonzero">
            <path d="M54,0 C63.9411255,0 72,8.0588745 72,18 L72,54 C72,63.9411255 63.9411255,72 54,72 L18,72 C8.0588745,72 0,63.9411255 0,54 L0,18 C0,8.0588745 8.0588745,0 18,0 L54,0 Z M54,6.3 L18,6.3 C11.7610868,6.3 6.66271466,11.1832372 6.31852124,17.3360739 L6.3,18 L6.3,54 C6.3,60.2389132 11.1832372,65.3372853 17.3360739,65.6814788 L18,65.7 L54,65.7 C60.2389132,65.7 65.3372853,60.8167628 65.6814788,54.6639261 L65.7,54 L65.7,18 C65.7,11.7610868 60.8167628,6.66271466 54.6639261,6.31852124 L54,6.3 Z M26.4200812,25.9481826 C28.6732185,22.9241787 32.9113254,22.0990409 36.1535323,24.1462291 L36.1535323,24.1462291 L46.1306721,30.4459759 C47.0475376,31.0249014 47.823708,31.8010718 48.4026336,32.7179373 C50.5521811,36.1222546 49.5349894,40.6245516 46.1306721,42.7740992 L46.1306721,42.7740992 L36.1535323,49.073846 C34.9886216,49.8093917 33.6391274,50.1997844 32.2614321,50.1997844 C28.2352763,50.1997844 24.9714321,46.9359402 24.9714321,42.9097844 L24.9714321,42.9097844 L24.9714321,30.3102907 C24.9714321,28.9325954 25.3618247,27.5831012 26.0973705,26.4181905 L26.0973705,26.4181905 Z M32.7899889,29.4731959 C32.3276742,29.181282 31.7162512,29.3194192 31.4243373,29.7817339 C31.3244484,29.9399316 31.2714321,30.1231963 31.2714321,30.3102907 L31.2714321,30.3102907 L31.2714321,42.9097844 C31.2714321,43.4565463 31.7146702,43.8997844 32.2614321,43.8997844 C32.4485265,43.8997844 32.6317912,43.8467681 32.7899889,43.7468792 L32.7899889,43.7468792 L42.7671287,37.4471323 C43.2294434,37.1552185 43.3675806,36.5437954 43.0756667,36.0814807 C42.9970472,35.9569681 42.8916413,35.8515623 42.7671287,35.7729427 L42.7671287,35.7729427 Z" id="icon"></path>
        </g>
    </g>
</svg>