<?xml version="1.0" encoding="UTF-8"?>
<svg width="250px" height="120px" viewBox="0 0 250 120" version="1.1" xmlns="http://www.w3.org/2000/svg" xmlns:xlink="http://www.w3.org/1999/xlink">
    <title>dm-verify-bot</title>
    <g id="dm-verify-bot" stroke="none" stroke-width="1" fill="none" fill-rule="evenodd">
        <g id="Group-2" transform="translate(28.000000, 18.000000)">
            <g id="Group-5" stroke-width="4">
                <g id="Group" stroke="#555555">
                    <path d="M68.5714286,79.1428571 L67.9864344,79.1428571 L67.9864344,79.1428571 L7.61904762,79.1428571 C3.41116381,79.1428571 0,75.7316933 0,71.5238095 L0,29.6190476 C0,25.4111638 3.41116381,22 7.61904762,22 L68.5714286,22 C72.7793124,22 76.1904762,25.4111638 76.1904762,29.6190476 L76.1904762,51.5301792 L76.1904762,51.5301792" id="Path"></path>
                    <rect id="Rectangle" x="15.4761905" y="38" width="16" height="16" rx="8"></rect>
                    <rect id="Rectangle" x="44.4761905" y="38" width="16" height="16" rx="8"></rect>
                    <rect id="Rectangle" x="32.4761905" y="2" width="11.2380952" height="11.2380952" rx="5.61904762"></rect>
                    <line x1="38.0952381" y1="22.8571429" x2="38.0952381" y2="12.6338573" id="Path-11"></line>
                </g>
                <circle id="Oval" stroke="#EC353F" cx="79" cy="68" r="15"></circle>
                <line x1="68.3861638" y1="57.3810288" x2="88.881929" y2="78.0523867" id="Path-12" stroke="#EC353F"></line>
            </g>
            <g id="Group-4" transform="translate(152.000000, 43.500000) scale(-1, 1) translate(-152.000000, -43.500000) translate(109.000000, 2.000000)" stroke-width="4">
                <g id="user" fill-rule="nonzero" stroke="#555555">
                    <path d="M61.6741788,53.8020576 L50.0344283,51.4709141 C48.7996674,51.2260909 47.9002079,50.1297083 47.9002079,48.8630139 L47.9002079,46.1912468 C48.6666112,45.1267977 49.3851143,43.7057582 50.1302287,42.2208518 C50.6997089,41.097858 51.5565904,39.405384 51.9397921,39.0062156 C54.1964241,36.7974838 56.602079,34.0565275 57.3365489,30.4853008 C58.0018295,27.2493757 57.3365489,25.5675462 56.5648233,24.2369848 C56.5648233,21.6344069 56.6564304,16.1684609 55.7516487,12.7356127 C54.2653487,8.14968815 47.9002079,-0.244678369 37.1545946,0.00480188022 C30.1292308,0.270914146 21.5071933,4.72563348 18.6225364,12.7356127 C17.7443659,15.1678788 17.8295218,19.1595628 17.8933888,22.3688767 L17.8188773,24.2369848 C17.1429522,25.5675462 16.4776715,27.2493757 17.1482744,30.4799786 C17.8827443,34.0671719 20.2883992,36.802806 22.5343867,39.0008934 C22.9229106,39.405384 23.7904366,41.1085025 24.3652391,42.2314963 C25.1209979,43.7110805 25.8448233,45.13212 26.6112266,46.196569 L26.6112266,48.8630139 C26.6112266,50.1297083 25.7117672,51.2260909 24.471684,51.4709141 L12.8319335,53.8020576 C5.39675676,55.286964 2.84217094e-14,61.8705815 2.84217094e-14,69.4547811 L2.84217094e-14,74.5162364 C2.84217094e-14,77.4487936 2.38968815,79.8384817 5.32224532,79.8384817 L62.1891892,79.8384817" id="Path"></path>
                </g>
                <circle id="Oval" stroke="#00DF76" cx="69" cy="66" r="15"></circle>
                <polyline id="Path-12" stroke="#00DF76" transform="translate(68.830731, 65.978206) scale(-1, 1) translate(-68.830731, -65.978206) " points="61.2593026 66.3435082 66.858341 71.2782061 76.4021596 60.6782062"></polyline>
            </g>
            <line x1="102.5" y1="0" x2="102.5" y2="85" id="Path-13" stroke="#333333" stroke-width="2" stroke-dasharray="5"></line>
            <line x1="28" y1="63.5" x2="48" y2="63.5" id="Path-14" stroke="#555555" stroke-width="4"></line>
        </g>
    </g>
</svg>