<?xml version="1.0" encoding="UTF-8"?>
<svg width="40px" height="1040px" viewBox="0 0 40 1040" version="1.1" xmlns="http://www.w3.org/2000/svg" xmlns:xlink="http://www.w3.org/1999/xlink">
    <title>networks-sprite</title>
    <g id="networks-sprite" stroke="none" stroke-width="1" fill="none" fill-rule="evenodd" transform="translate(0.000000, 0.000000)">
        <g id="icon" transform="translate(10.000000, 10.000000)">
            <rect id="rectangle" stroke="#000000" stroke-width="1.75" x="0.875" y="0.875" width="18.25" height="18.25" rx="5"></rect>
            <circle id="oval" fill="#000000" cx="16" cy="5" r="1"></circle>
            <circle id="oval" stroke="#000000" stroke-width="1.75" cx="10" cy="10" r="4"></circle>
        </g>
        <path d="M24.452619,50.125 C24.3809616,51.4575053 24.8960585,52.6727926 25.7609174,53.5376515 C26.6257763,54.4025104 27.8410635,54.9176072 29.1735689,54.8459499 L29.1735689,54.8459499 L29.1735689,58.7150793 C27.8021958,58.7535991 26.4717716,58.4645628 25.2676391,57.8751538 L25.2676391,57.8751538 L24.4458168,64.2724503 C24.4303029,66.0858141 23.6867356,67.7288368 22.4932739,68.9222646 C21.2871148,70.1283895 19.6217365,70.875 17.7854501,70.875 C15.9491666,70.875 14.283838,70.1283942 13.0777219,68.9222781 C11.8716058,67.716162 11.125,66.0508334 11.125,64.2145499 C11.125,62.5098142 11.7685113,60.9524522 12.8256519,59.7729764 C14.0964339,58.355136 15.9650377,57.4844693 18.0299191,57.558256 L18.0299191,57.558256 L18.0299191,61.4305572 C17.0736402,61.348008 16.2068455,61.7517292 15.6455744,62.4194744 C15.2372334,62.9052784 14.9908912,63.5316448 14.9908912,64.2145499 C14.9908912,64.985054 15.3046664,65.6835323 15.8106329,66.1895215 C16.3165733,66.6954845 17.0149844,67.009273 17.7854501,67.009273 C18.5559859,67.009273 19.2544405,66.6954919 19.7604066,66.1895258 C20.2663945,65.6835379 20.5801732,64.9850571 20.5801732,64.2145499 L20.5801732,64.2145499 L20.5801732,50.125 Z" id="Shape" stroke="#000000" stroke-width="1.75" fill-rule="nonzero"></path>
    </g>
</svg>