<?xml version="1.0" encoding="UTF-8"?>
<svg width="250px" height="120px" viewBox="0 0 250 120" version="1.1" xmlns="http://www.w3.org/2000/svg" xmlns:xlink="http://www.w3.org/1999/xlink">
    <title>verify-bot</title>
    <g id="verify-bot" stroke="none" stroke-width="1" fill="none" fill-rule="evenodd">
        <g id="Group-2" transform="translate(28.000000, 18.000000)">
            <g id="Group-5" stroke-width="4">
                <g id="Group" stroke="#000000">
                    <path d="M68.5714286,79.1428571 L67.9864344,79.1428571 L67.9864344,79.1428571 L7.61904762,79.1428571 C3.41116381,79.1428571 0,75.7316933 0,71.5238095 L0,29.6190476 C0,25.4111638 3.41116381,22 7.61904762,22 L68.5714286,22 C72.7793124,22 76.1904762,25.4111638 76.1904762,29.6190476 L76.1904762,51.5301792 L76.1904762,51.5301792" id="Path"></path>
                    <rect id="Rectangle" x="15.4761905" y="38" width="16" height="16" rx="8"></rect>
                    <rect id="Rectangle" x="44.4761905" y="38" width="16" height="16" rx="8"></rect>
                    <rect id="Rectangle" x="32.4761905" y="2" width="11.2380952" height="11.2380952" rx="5.61904762"></rect>
                    <line x1="38.0952381" y1="22.8571429" x2="38.0952381" y2="12.6338573" id="Path-11"></line>
                </g>
                <circle id="Oval" stroke="#EC353F" cx="79" cy="68" r="15"></circle>
                <line x1="68.3861638" y1="57.3810288" x2="88.881929" y2="78.0523867" id="Path-12" stroke="#EC353F"></line>
            </g>
            <g id="Group-4" transform="translate(152.000000, 43.499682) scale(-1, 1) translate(-152.000000, -43.499682) translate(109.000000, 1.999363)" stroke-width="4">
                <g id="user" transform="translate(0.000000, 0.000000)" fill-rule="nonzero" stroke="#000000">
                    <path d="M61.6741788,53.8026941 L50.0344283,51.4715507 C48.7996674,51.2267274 47.9002079,50.1303449 47.9002079,48.8636505 L47.9002079,46.1918833 C48.6666112,45.1274343 49.3851143,43.7063948 50.1302287,42.2214883 C50.6997089,41.0984946 51.5565904,39.4060205 51.9397921,39.0068521 C54.1964241,36.7981203 56.602079,34.057164 57.3365489,30.4859374 C58.0018295,27.2500122 57.3365489,25.5681827 56.5648233,24.2376214 C56.5648233,21.6350434 56.6564304,16.1690975 55.7516487,12.7362492 C54.2653487,8.1503247 47.9002079,-0.244041822 37.1545946,0.00543842727 C30.1292308,0.271550693 21.5071933,4.72627003 18.6225364,12.7362492 C17.7443659,15.1685154 17.8295218,19.1601993 17.8933888,22.3695133 L17.8188773,24.2376214 C17.1429522,25.5681827 16.4776715,27.2500122 17.1482744,30.4806151 C17.8827443,34.0678085 20.2883992,36.8034426 22.5343867,39.0015299 C22.9229106,39.4060205 23.7904366,41.1091391 24.3652391,42.2321328 C25.1209979,43.711717 25.8448233,45.1327565 26.6112266,46.1972056 L26.6112266,48.8636505 C26.6112266,50.1303449 25.7117672,51.2267274 24.471684,51.4715507 L12.8319335,53.8026941 C5.39675676,55.2876006 0,61.8712181 0,69.4554176 L0,74.5168729 C0,77.4494301 2.38968815,79.8391183 5.32224532,79.8391183 L62.1891892,79.8391183" id="Path"></path>
                </g>
                <circle id="Oval" stroke="#00DF76" cx="69" cy="66.0006365" r="15"></circle>
                <polyline id="Path-12" stroke="#00DF76" transform="translate(68.830731, 65.978843) scale(-1, 1) translate(-68.830731, -65.978843) " points="61.2593026 66.3441447 66.858341 71.2788426 76.4021596 60.6788427"></polyline>
            </g>
            <line x1="102.5" y1="0" x2="102.5" y2="85" id="Path-13" stroke="#E6E6E6" stroke-width="2" stroke-dasharray="5"></line>
            <line x1="28" y1="63.5" x2="48" y2="63.5" id="Path-14" stroke="#000000" stroke-width="4"></line>
        </g>
    </g>
</svg>